# xmcd
#
# Track frame offsets:
#	183
#	11973
#	23758
#	38698
#	52975
#	65273
#	77023
#	88288
#	103438
#	117405
#	128510
#	144633
#	154260
#	163938
#	176870
#
# Disc length: 2488 seconds
#
# Revision: 1
# Processed by: cddbd v1.5.2PL0 Copyright (c) Steve Scherf et al.
# Submitted via: audiograbber 1.83.01
#
DISCID=cf09b60f
DTITLE=Various Artist - Best Of Country - With Love From Nashville - Vol. 1 
DYEAR=1900
DGENRE=Country
TTITLE0=Patsy Cline - Walkin After Midnight
TTITLE1=Don Gibson - I Can't Stop Loving You
TTITLE2=Jeannie C. Riley - Harper Valley PTA
TTITLE3=Nancy Peppers - The Words That Go Unspoken
TTITLE4=Merle Haggard - Tonight The Bottle Let Me Down
TTITLE5=Patsy Cline - In Care Of The Blues
TTITLE6=Conway Twitty - Hello Darlin'
TTITLE7=Mark Mozingo - Old Flames Can't Hold A Candle
TTITLE8=The Kendalls - Crying Time
TTITLE9=George Jones - Once A Day
TTITLE10=Brenda Lee - Coming On Strong
TTITLE11=Willie Nelson - Lets Pretend
TTITLE12=Loretta Lynn - You Ain't Woman Enough
TTITLE13=Charley Pride - Crystal Chandeliers
TTITLE14=Hank Locklin - Please Help Me I'm Falling
EXTD=
EXTT0=
EXTT1=
EXTT2=
EXTT3=
EXTT4=
EXTT5=
EXTT6=
EXTT7=
EXTT8=
EXTT9=
EXTT10=
EXTT11=
EXTT12=
EXTT13=
EXTT14=
PLAYORDER=
